HIERARCHY
ROOT hip
{
  OFFSET 0 0 0
  CHANNELS 6 Xposition Yposition Zposition Zrotation Yrotation Xrotation
  JOINT abdomen
  {
    OFFSET 0 20.6881 -0.73152
    CHANNELS 3 Zrotation Xrotation Yrotation
    JOINT chest
    {
      OFFSET 0 11.7043 -0.48768
      CHANNELS 3 Zrotation Xrotation Yrotation
      JOINT neck
      {
        OFFSET 0 22.1894 -2.19456
        CHANNELS 3 Zrotation Xrotation Yrotation
        JOINT head
        {
          OFFSET -0.24384 7.07133 1.2192
          CHANNELS 3 Zrotation Xrotation Yrotation
          JOINT leftEye
          {
            OFFSET 4.14528 8.04674 8.04672
            CHANNELS 3 Zrotation Xrotation Yrotation
            End Site
            {
              OFFSET 1 0 0
            }
          }
          JOINT rightEye
          {
            OFFSET -3.6576 8.04674 8.04672
            CHANNELS 3 Zrotation Xrotation Yrotation
            End Site
            {
              OFFSET 1 0 0
            }
          }
        }
      }
      JOINT rCollar
      {
        OFFSET -2.68224 19.2634 -4.8768
        CHANNELS 3 Zrotation Xrotation Yrotation
        JOINT rShldr
        {
          OFFSET -8.77824 -1.95073 1.46304
          CHANNELS 3 Zrotation Xrotation Yrotation
          JOINT rForeArm
          {
            OFFSET -28.1742 -1.7115 0.48768
            CHANNELS 3 Zrotation Xrotation Yrotation
            JOINT rHand
            {
              OFFSET -22.5879 0.773209 7.07136
              CHANNELS 3 Zrotation Xrotation Yrotation
              JOINT rThumb1
              {
                OFFSET -1.2192 -0.487915 3.41376
                CHANNELS 3 Zrotation Xrotation Yrotation
                JOINT rThumb2
                {
                  OFFSET -3.37035 -0.52449 3.41376
                  CHANNELS 3 Zrotation Xrotation Yrotation
                  End Site
                  {
                    OFFSET -1.78271 -1.18214 1.43049
                  }
                }
              }
              JOINT rIndex1
              {
                OFFSET -7.75947 0.938293 5.60832
                CHANNELS 3 Zrotation Xrotation Yrotation
                JOINT rIndex2
                {
                  OFFSET -2.54057 -0.884171 1.56538
                  CHANNELS 3 Zrotation Xrotation Yrotation
                  End Site
                  {
                    OFFSET -1.62519 -0.234802 1.16502
                  }
                }
              }
              JOINT rMid1
              {
                OFFSET -8.24714 1.18213 3.41376
                CHANNELS 3 Zrotation Xrotation Yrotation
                JOINT rMid2
                {
                  OFFSET -3.10165 -0.590103 1.0647
                  CHANNELS 3 Zrotation Xrotation Yrotation
                  End Site
                  {
                    OFFSET -2.48547 -0.328903 0.83742
                  }
                }
              }
              JOINT rRing1
              {
                OFFSET -8.82822 0.546677 1.51678
                CHANNELS 3 Zrotation Xrotation Yrotation
                JOINT rRing2
                {
                  OFFSET -2.60934 -0.819778 -0.0198488
                  CHANNELS 3 Zrotation Xrotation Yrotation
                  End Site
                  {
                    OFFSET -2.33842 -0.294052 0.168128
                  }
                }
              }
              JOINT rPinky1
              {
                OFFSET -8.27202 -0.0477905 -0.4584
                CHANNELS 3 Zrotation Xrotation Yrotation
                JOINT rPinky2
                {
                  OFFSET -1.82734 -0.647385 -0.700984
                  CHANNELS 3 Zrotation Xrotation Yrotation
                  End Site
                  {
                    OFFSET -1.69225 -0.51767 -0.607171
                  }
                }
              }
            }
          }
        }
      }
      JOINT lCollar
      {
        OFFSET 2.68224 19.2634 -4.8768
        CHANNELS 3 Zrotation Xrotation Yrotation
        JOINT lShldr
        {
          OFFSET 8.77824 -1.95073 1.46304
          CHANNELS 3 Zrotation Xrotation Yrotation
          JOINT lForeArm
          {
            OFFSET 28.1742 -1.7115 0.48768
            CHANNELS 3 Zrotation Xrotation Yrotation
            JOINT lHand
            {
              OFFSET 22.5879 0.773209 7.07136
              CHANNELS 3 Zrotation Xrotation Yrotation
              JOINT lThumb1
              {
                OFFSET 1.2192 -0.487915 3.41376
                CHANNELS 3 Zrotation Xrotation Yrotation
                JOINT lThumb2
                {
                  OFFSET 3.37035 -0.52449 3.41376
                  CHANNELS 3 Zrotation Xrotation Yrotation
                  End Site
                  {
                    OFFSET 1.78271 -1.18214 1.43049
                  }
                }
              }
              JOINT lIndex1
              {
                OFFSET 7.75947 0.938293 5.60832
                CHANNELS 3 Zrotation Xrotation Yrotation
                JOINT lIndex2
                {
                  OFFSET 2.54057 -0.884171 1.56538
                  CHANNELS 3 Zrotation Xrotation Yrotation
                  End Site
                  {
                    OFFSET 1.62519 -0.234802 1.16502
                  }
                }
              }
              JOINT lMid1
              {
                OFFSET 8.24714 1.18213 3.41376
                CHANNELS 3 Zrotation Xrotation Yrotation
                JOINT lMid2
                {
                  OFFSET 3.10165 -0.590103 1.0647
                  CHANNELS 3 Zrotation Xrotation Yrotation
                  End Site
                  {
                    OFFSET 2.48547 -0.328903 0.83742
                  }
                }
              }
              JOINT lRing1
              {
                OFFSET 8.82822 0.546677 1.51678
                CHANNELS 3 Zrotation Xrotation Yrotation
                JOINT lRing2
                {
                  OFFSET 2.60934 -0.819778 -0.0198488
                  CHANNELS 3 Zrotation Xrotation Yrotation
                  End Site
                  {
                    OFFSET 2.33842 -0.294052 0.168128
                  }
                }
              }
              JOINT lPinky1
              {
                OFFSET 8.27202 -0.0477905 -0.4584
                CHANNELS 3 Zrotation Xrotation Yrotation
                JOINT lPinky2
                {
                  OFFSET 1.82734 -0.647385 -0.700984
                  CHANNELS 3 Zrotation Xrotation Yrotation
                  End Site
                  {
                    OFFSET 1.69225 -0.51767 -0.607171
                  }
                }
              }
            }
          }
        }
      }
    }
  }
  JOINT rButtock
  {
    OFFSET -8.77824 4.35084 1.2192
    CHANNELS 3 Zrotation Xrotation Yrotation
    JOINT rThigh
    {
      OFFSET 0 -1.70687 -2.19456
      CHANNELS 3 Zrotation Xrotation Yrotation
      JOINT rShin
      {
        OFFSET 0 -36.8199 0.73152
        CHANNELS 3 Zrotation Xrotation Yrotation
        JOINT rFoot
        {
          OFFSET 0.73152 -45.1104 -5.12064
          CHANNELS 3 Zrotation Xrotation Yrotation
          End Site
          {
            OFFSET -1.1221 -3.69964 12.103
          }
        }
      }
    }
  }
  JOINT lButtock
  {
    OFFSET 8.77824 4.35084 1.2192
    CHANNELS 3 Zrotation Xrotation Yrotation
    JOINT lThigh
    {
      OFFSET 0 -1.70687 -2.19456
      CHANNELS 3 Zrotation Xrotation Yrotation
      JOINT lShin
      {
        OFFSET 0 -36.8199 0.73152
        CHANNELS 3 Zrotation Xrotation Yrotation
        JOINT lFoot
        {
          OFFSET -0.73152 -45.1104 -5.12064
          CHANNELS 3 Zrotation Xrotation Yrotation
          End Site
          {
            OFFSET 1.1221 -3.69964 12.103
          }
        }
      }
    }
  }
}
MOTION
Frames:	4
Frame Time:	0.03333
2.1842 52.8018 -0.11670000000000001 -101.103983 74.80536 -93.776112 11.840896 6.712418 0.0 2.256797 -7.004276 0.127577 -8.036482 11.489737 -34.68453 18.604794 -6.025298 40.35202 -0.002807 0.0 -0.002459 -0.003103 -0.0 0.003246 4.238807 -44.742764 -8.648185 -76.3793 -31.311279 -85.397883 -0.082816 -4.164695 -143.633924 -148.283319 25.494762 131.812498 -1.583964 1.55606 0.264728 -136.926459 -39.669659 117.78478 -154.18336 -22.428701 121.924391 -154.910113 -3.284691 118.998788 2.099496 -6.305506 -1.081654 5.704045 -7.593529 -0.863977 -145.1225 1.975372 -179.748955 11.367044 19.627791 -6.725525 15.075982 52.52018 11.944204 -152.831936 27.400461 -146.405766 -1.990208 -14.052893 2.881342 94.811609 14.280387 -103.601415 165.985104 -18.184668 166.563027 11.810788 65.723859 -18.274607 173.76983 -11.440203 -89.892123 35.427282 -26.537989 -3.520906 -168.92502 -66.170445 -109.493124 169.250651 -36.406816 -115.204817 6.647459 17.108711 -4.325636 4.659096 20.80915 -4.267133 0.016093 -1.323177 0.415679 154.282533 11.214176 -170.336172 139.548489 -3.62082 136.689549 25.418587 -40.307058 27.034489 -179.982611 75.749146 -0.014307 145.573582 80.962792 -0.0 -28.799182 44.630149 -122.999159 179.553947 4.779139 -115.253771 -0.0 0.000495 0.000783 86.591185 -59.191205 -3.49624 -83.78299 1.51309 -0.498508 74.948029 70.51859 -1.407753
2.2023 52.782 -0.11839999999999999 -101.085635 74.780255 -93.747652 11.899962 6.642808 0.0 2.244315 -7.013804 0.101616 -5.994453 26.745377 -137.60773 14.177418 28.655869 138.99451 -0.003364 -0.0 5.1e-05 0.0021 0.0 1.4e-05 0.405756 -2.508525 -0.548394 58.17519 5.407755 -40.106443 -12.186158 19.019531 116.649762 -12.885453 -58.282955 -15.945203 -2.925993 2.861996 0.521053 -55.229413 27.636919 51.153214 10.209381 -18.051318 -4.562893 -168.952079 -26.856279 109.200973 -167.375631 -28.008375 145.269381 -162.244875 -1.452478 142.599059 -0.010121 -0.87218 -0.273466 6.217475 33.725399 5.590426 0.097667 0.258069 0.093869 1.505741 -2.663241 -0.828458 -0.117796 -0.714115 0.157532 177.405108 -4.226099 -110.225614 135.139886 85.837932 -151.900009 39.068464 81.027556 -41.072412 78.030515 38.688705 -42.412934 170.439852 -42.54299 -80.201057 148.886725 -12.609762 -120.244437 118.725049 45.975565 -95.900394 -17.126305 -49.945425 2.059494 -9.717649 -20.38113 1.463092 145.123137 1.122029 179.480229 -11.509432 58.7993 1.660917 0.346441 -0.890015 0.31771 75.97161 -54.867449 75.663745 -0.001592 0.001226 -0.000796 -4.951168 5.002239 -135.186149 -34.245245 -29.00777 67.950295 -61.093824 -30.752111 8.637127 -179.987249 75.749473 -0.010491 -148.687137 -10.46568 -80.105498 -80.76113 5.788951 27.184599 -32.285029 -56.952522 55.192906
2.2185 52.766400000000004 -0.1217 -101.030979 74.760317 -93.6955 9.612611 4.811219 75.925723 -3.97064 -5.703766 -76.149461 5.677224 25.918636 153.681621 -11.531913 26.734565 -149.212581 -0.000261 0.0 -0.003243 -0.000504 0.0 -0.003526 -143.260731 38.907123 147.696187 6.911833 2.589711 73.010647 -124.939849 -20.92882 -25.431246 -166.748602 -76.467778 174.529864 -68.482203 37.953843 35.659799 -108.481721 -11.69184 78.926856 -93.640771 40.183364 78.833704 2.927407 5.366283 -4.578581 -161.519646 -9.303836 143.626523 -163.035284 -3.984279 142.880388 -145.119531 0.185152 -179.187238 -152.38493 -25.063987 -175.332448 -1.186795 -3.006682 -1.102053 -75.945491 -54.867595 -75.673862 85.537269 68.182884 -88.689005 50.456989 13.960992 -0.030397 54.240664 -61.161722 87.026209 -19.760053 -23.445345 -27.126936 -1.590744 -1.57568 0.221937 128.404568 -22.848291 -114.543808 1.564287 2.495057 -0.906683 -7.72393 5.065581 -0.354788 161.153954 -8.160358 -143.465911 -2.650744 1.632351 -0.58214 145.065502 -3.223736 178.112629 -12.216142 52.744272 2.714955 111.80308 -40.683845 109.846929 145.620162 8.852712 141.596857 -179.999225 75.749295 -0.00053 141.560145 80.77366 37.963058 1.276305 42.967657 -69.890762 -12.049483 -28.64228 29.580374 3.5e-05 0.000347 -4.5e-05 84.30946 -60.254274 85.055272 91.330074 79.813036 67.698601 -114.706775 1.477414 163.208749
2.23 52.7539 -0.12789999999999999 -100.979725 74.757727 -93.656429 9.686962 3.427204 109.300721 -5.171255 -2.994911 -109.572668 9.654541 18.153995 102.469929 -18.674502 10.482118 -100.326188 0.003186 -0.0 -0.004649 -0.002754 -0.0 0.000783 -48.788415 -86.434817 -70.451351 -39.492269 8.014854 -31.145363 -60.485512 23.426538 -155.126914 -170.781489 -51.111141 161.182693 114.537973 -50.245063 55.722471 -64.716906 28.215656 19.471956 166.19622 -67.455175 107.481617 -84.811104 54.392424 70.599186 -160.673404 -6.667985 143.244517 -161.237606 1.252084 142.226167 -145.107537 3.759522 179.68881 -155.793796 0.812742 -179.343236 -145.396534 12.779726 -142.020223 -5.924518 -17.401629 -8.83083 5.824395 24.937331 -6.989811 -92.222863 -32.597688 -110.235807 -60.480785 -55.862531 -53.576872 -175.903174 36.263988 -169.056312 169.320096 -7.000558 -89.922649 90.839809 9.477894 -35.299052 -10.747175 -19.047977 4.724843 176.609254 -35.861817 -106.502948 -6.532417 -20.415012 2.718852 -10.80706 -23.477113 1.55657 145.120683 0.185271 179.187135 74.515741 -78.000136 96.024137 5.515823 -12.596319 5.174615 -2.740914 0.010021 0.007273 0.001044 -0.000501 -0.0 -4.682863 5.423002 -111.38644 -43.607893 -15.455596 25.304967 -8.735134 -32.746522 40.804198 -179.991321 75.750143 -0.005938 -150.942303 -10.887892 99.397863 85.779132 -17.777596 -2.744789 -7.89453 -0.30194 -95.666926
